HIERARCHY
ROOT ROOT
{
	OFFSET 0.000000 56.020000 -5.659234
	CHANNELS 6 Xposition Yposition Zposition Xrotation Yrotation Zrotation 
	JOINT C_spine0001_bind_JNT
	{
		OFFSET 0.000000 1.618999 0.000000
		CHANNELS 3 Xrotation Yrotation Zrotation
		JOINT C_spine0002_bind_JNT
		{
			OFFSET 0.000000 4.942001 0.000001
			CHANNELS 3 Xrotation Yrotation Zrotation
			JOINT C_spine0003_bind_JNT
			{
				OFFSET 0.000000 4.942001 -0.000000
				CHANNELS 3 Xrotation Yrotation Zrotation
				JOINT C_neck0001_bind_JNT
				{
					OFFSET 0.000000 17.026009 -0.000000
					CHANNELS 3 Xrotation Yrotation Zrotation
					JOINT C_neck0002_bind_JNT
					{
						OFFSET 0.000000 3.249985 0.000000
						CHANNELS 3 Xrotation Yrotation Zrotation
						JOINT C_head_bind_JNT
						{
							OFFSET 0.000000 5.278008 0.000000
							CHANNELS 3 Xrotation Yrotation Zrotation
							End Site
							{
								OFFSET 0.000000 0.000000 0.000000
							}
						}
					}
				}
				JOINT L_clavicle_bind_JNT
				{
					OFFSET 4.590000 12.067001 0.834000
					CHANNELS 3 Xrotation Yrotation Zrotation
					JOINT L_armUpper0001_bind_JNT
					{
						OFFSET 7.812635 0.512001 -3.452945
						CHANNELS 3 Xrotation Yrotation Zrotation
						JOINT L_armLower0001_bind_JNT
						{
							OFFSET 15.265892 -6.552116 -0.058157
							CHANNELS 3 Xrotation Yrotation Zrotation
							JOINT L_hand0001_bind_JNT
							{
								OFFSET 14.747667 -6.369995 5.049225
								CHANNELS 3 Xrotation Yrotation Zrotation
								End Site
								{
									OFFSET 0.000000 0.000000 0.000000
								}
							}
						}
					}
				}
				JOINT R_clavicle_bind_JNT
				{
					OFFSET -4.590000 12.067001 0.834000
					CHANNELS 3 Xrotation Yrotation Zrotation
					JOINT R_armUpper0001_bind_JNT
					{
						OFFSET -7.812635 0.512001 -3.452945
						CHANNELS 3 Xrotation Yrotation Zrotation
						JOINT R_armLower0001_bind_JNT
						{
							OFFSET -15.265890 -6.552124 -0.058160
							CHANNELS 3 Xrotation Yrotation Zrotation
							JOINT R_hand0001_bind_JNT
							{
								OFFSET -14.746784 -6.369629 5.048937
								CHANNELS 3 Xrotation Yrotation Zrotation
								End Site
								{
									OFFSET 0.000000 0.000000 0.000000
								}
							}
						}
					}
				}
			}
		}
	}
	JOINT C_pelvis0001_bind_JNT
	{
		OFFSET -0.000000 0.000000 0.000000
		CHANNELS 3 Xrotation Yrotation Zrotation
		JOINT L_legUpper0001_bind_JNT
		{
			OFFSET 6.599999 -6.027000 0.539000
			CHANNELS 3 Xrotation Yrotation Zrotation
			JOINT L_legLower0001_bind_JNT
			{
				OFFSET -0.140713 -19.187443 0.040261
				CHANNELS 3 Xrotation Yrotation Zrotation
				JOINT L_foot0001_bind_JNT
				{
					OFFSET -0.132215 -18.028637 -1.138370
					CHANNELS 3 Xrotation Yrotation Zrotation
					JOINT L_foot0002_bind_JNT
					{
						OFFSET 0.007014 -4.693133 9.886524
						CHANNELS 3 Xrotation Yrotation Zrotation
						End Site
						{
							OFFSET 0.000000 0.000000 0.000000
						}
					}
				}
			}
		}
		JOINT R_legUpper0001_bind_JNT
		{
			OFFSET -6.599999 -6.027000 0.539000
			CHANNELS 3 Xrotation Yrotation Zrotation
			JOINT R_legLower0001_bind_JNT
			{
				OFFSET 0.140710 -19.187164 0.040550
				CHANNELS 3 Xrotation Yrotation Zrotation
				JOINT R_foot0001_bind_JNT
				{
					OFFSET 0.132215 -18.028633 -1.138362
					CHANNELS 3 Xrotation Yrotation Zrotation
					JOINT R_foot0002_bind_JNT
					{
						OFFSET -0.007014 -4.693128 9.886505
						CHANNELS 3 Xrotation Yrotation Zrotation
						End Site
						{
							OFFSET 0.000000 0.000000 0.000000
						}
					}
				}
			}
		}
	}
}
MOTION
Frames: 8
Frame Time: 0.033333
0.000000 48.553135 0.000000 0.034481 1.749978 -0.028811 -1.791495 -1.844762 -1.263617 0.957358 0.153678 1.465374 -0.032217 0.216818 0.511829 -2.153834 -0.238109 0.471563 1.583701 1.442652 -0.478160 8.106222 -0.348588 -0.024595 -0.255666 14.965497 -3.999108 3.761147 9.828691 -61.356903 19.498323 7.893095 -1.304582 -23.164301 -32.384472 -37.566063 -0.420814 -10.772157 2.718829 2.459112 -4.698156 60.306545 17.855640 -8.965336 1.934875 -19.449507 26.801359 30.447714 -1.429633 -2.315969 -0.872050 8.815869 -0.084879 -3.073683 -5.085898 -0.545387 0.758261 -2.427143 2.808319 3.330232 -0.583189 -0.057922 -0.217891 6.627119 -0.093413 3.827933 -2.737601 1.513574 -1.219817 -2.213571 -4.641649 -0.890019 -0.363320 0.014365 -0.259410 
-0.028366 48.459827 0.114623 0.000435 2.019428 -0.014681 -1.768864 -2.484310 -1.273443 0.653489 0.410902 1.331171 -0.053114 0.617067 0.479586 -2.947158 -0.298698 0.305833 1.604510 0.901272 0.049785 8.383070 -0.326108 -0.435157 -0.164361 14.906301 -4.302463 3.376070 9.558724 -60.511024 21.349173 7.199728 -1.315509 -24.527369 -31.296738 -37.853657 -0.650422 -10.877007 3.124858 4.086847 -5.674791 59.751926 17.967400 -7.698108 1.055649 -21.991896 26.965511 31.046663 -1.603858 -2.898232 -0.470354 9.069806 0.834524 -4.135535 -4.843508 -0.015657 1.248950 -2.085470 2.301989 3.640249 -0.497962 -0.309221 -0.259883 7.418320 -0.169848 3.636417 -3.489107 2.212280 -1.439477 -1.777816 -5.086804 -1.077193 -0.502282 -0.065558 -0.147612 
-0.096697 48.420906 0.197675 -0.007990 2.116616 0.001681 -1.404112 -2.541598 -1.173002 0.331401 0.573553 1.200431 0.101384 0.853317 0.250813 -3.006162 -0.344724 0.482663 1.492875 0.783244 0.094881 7.923981 -0.454016 -0.476650 -0.571031 14.884580 -4.416517 3.059280 9.127726 -60.547096 21.430372 7.592792 -0.571849 -24.098793 -31.136471 -37.495434 -0.975928 -11.432960 3.345090 4.298391 -5.721483 59.588779 17.636011 -7.728003 0.675171 -21.443413 26.919695 31.067934 -1.523512 -2.809672 -0.471954 9.331002 0.894947 -3.969079 -4.805497 -0.090275 1.472946 -2.275223 2.239590 3.518352 -0.623382 -0.249374 -0.299048 7.011401 -0.380042 3.659170 -2.975090 2.946889 -1.670376 -1.861233 -5.390285 -0.998614 -0.619408 -0.077749 -0.121303 
-0.162201 48.423500 0.224294 0.004386 1.963632 -0.010602 -1.319530 -2.419225 -1.206238 0.358148 0.790482 1.189909 0.079597 0.982042 0.377879 -3.337617 -0.428963 0.439505 1.620825 0.927307 -0.011563 7.763791 -0.770351 -0.283545 -0.585088 14.821122 -4.587052 2.812974 8.745115 -60.423668 21.269979 7.659168 -0.329008 -23.743513 -30.875957 -37.627003 -1.123247 -11.658938 3.250422 4.262084 -6.015200 59.520397 17.790974 -7.495483 0.750465 -21.257006 27.062618 31.059338 -1.468505 -2.625182 -0.410185 9.258273 0.929241 -3.638810 -4.951594 -0.038539 1.455750 -2.207624 2.276001 3.328458 -0.572854 -0.321572 -0.384405 7.042467 -0.274588 3.474548 -3.372406 3.205394 -1.696060 -1.607026 -5.734210 -0.909631 -0.509596 0.035481 -0.159862 
-0.207775 48.416996 0.223881 0.001307 2.088413 0.001798 -1.588468 -2.350586 -1.219694 0.480715 0.790929 1.214239 0.164733 0.990310 0.208948 -3.229930 -0.430756 0.550218 1.560356 0.859850 0.072906 7.636245 -0.584505 -0.343713 -0.656505 14.962410 -4.532711 2.983499 8.419934 -60.317677 21.053383 7.707151 -0.252706 -23.142420 -31.006790 -37.588615 -1.064102 -11.776005 3.177630 4.419070 -6.008708 59.739613 17.851717 -7.308689 0.695244 -21.343445 27.217981 30.895329 -1.599793 -2.559448 -0.392994 9.594474 1.092983 -3.428119 -5.208643 -0.285686 1.371448 -2.075095 2.233900 3.289677 -0.576003 -0.153422 -0.478681 7.232380 -0.394157 3.405264 -3.439034 3.332565 -1.661526 -1.603436 -5.920717 -0.921352 -0.445204 0.002917 -0.096748 
-0.223648 48.420036 0.206436 -0.005663 2.014490 0.001002 -1.534792 -2.228913 -1.189970 0.497213 0.869023 1.164141 0.169625 1.101192 0.331868 -3.242055 -0.516667 0.552693 1.563596 0.820409 -0.056588 7.523205 -0.769900 -0.258987 -0.537601 14.725747 -4.606202 2.938752 8.382345 -60.296844 20.695246 7.723584 -0.322757 -23.018736 -31.000488 -37.806564 -1.001925 -11.930171 3.046219 4.336193 -6.070919 59.697216 17.901703 -7.095655 0.787486 -21.336668 27.207294 30.840403 -1.635835 -2.383327 -0.386700 9.747026 0.994977 -3.364445 -5.321140 -0.186113 1.432157 -2.089820 2.215785 3.177812 -0.606046 -0.225352 -0.543509 7.121244 -0.363173 3.335883 -3.333166 3.365314 -1.640284 -1.612261 -6.186840 -0.901998 -0.394920 0.056123 -0.027048 
-0.224356 48.438961 0.178347 -0.001462 1.995924 -0.003745 -1.701920 -2.078381 -1.208437 0.610085 0.790581 1.252032 0.282708 1.020228 0.289287 -3.247328 -0.504115 0.570168 1.546597 0.858838 -0.012529 7.593877 -0.735344 -0.347537 -0.473062 14.767418 -4.661286 3.054510 8.585123 -60.157837 20.490219 7.682631 -0.471926 -22.759693 -31.104017 -37.843666 -0.806249 -11.819211 3.048505 4.252781 -6.045954 59.731571 17.781843 -6.962214 0.750334 -21.290424 27.110144 30.694674 -1.757691 -2.204394 -0.398830 9.855198 1.006773 -3.271028 -5.232874 -0.287085 1.394402 -2.167481 2.138526 3.177042 -0.560504 -0.163243 -0.506649 7.097608 -0.469787 3.281567 -3.302406 3.264695 -1.488192 -1.543361 -6.166141 -0.977834 -0.386999 -0.025742 0.017119 
-0.220140 48.439888 0.153543 -0.001044 2.069279 -0.000904 -1.724726 -2.092354 -1.217619 0.743028 0.827451 1.236053 0.218177 0.997470 0.341804 -3.236689 -0.551611 0.558601 1.570093 0.798127 -0.054537 7.603857 -0.724370 -0.326792 -0.408913 14.718811 -4.693452 3.121968 8.630136 -60.119869 20.209347 7.760287 -0.473672 -22.591890 -30.980999 -37.874180 -0.725415 -11.735875 2.970793 4.288346 -6.091943 59.747925 17.699461 -6.921731 0.772077 -21.272829 27.262928 30.709885 -1.825232 -2.244571 -0.422463 9.909333 0.951348 -3.234303 -5.224435 -0.328449 1.444911 -2.189711 2.180604 3.140777 -0.549066 -0.135801 -0.575341 7.113310 -0.328391 3.198963 -3.262526 3.115769 -1.345814 -1.613604 -6.177395 -1.045420 -0.389635 0.002750 0.024608 
